<mxfile host="app.diagrams.net" modified="2022-02-01T10:31:23.978Z" agent="5.0 (Windows NT 10.0; Win64; x64) AppleWebKit/537.36 (KHTML, like Gecko) Chrome/97.0.4692.99 Safari/537.36" etag="OYF-jqcL9RO8GCRUJrVt" version="16.5.2" type="github">
  <diagram id="RPDIuS9xB0lEio1x4Md7" name="Page-1">
    <mxGraphModel dx="677" dy="363" grid="1" gridSize="10" guides="1" tooltips="1" connect="1" arrows="1" fold="1" page="1" pageScale="1" pageWidth="850" pageHeight="1100" math="0" shadow="0">
      <root>
        <mxCell id="0" />
        <mxCell id="1" parent="0" />
        <mxCell id="qdbTsztt1g49t_qeikrE-1" value="Social" style="ellipse;whiteSpace=wrap;html=1;fillColor=#f5f5f5;fontColor=#333333;strokeColor=#666666;" vertex="1" parent="1">
          <mxGeometry x="385" y="190" width="120" height="120" as="geometry" />
        </mxCell>
        <mxCell id="qdbTsztt1g49t_qeikrE-2" value="Environmental" style="ellipse;whiteSpace=wrap;html=1;fillColor=#f5f5f5;strokeColor=#666666;fontColor=#333333;" vertex="1" parent="1">
          <mxGeometry x="440" y="280" width="120" height="120" as="geometry" />
        </mxCell>
        <mxCell id="qdbTsztt1g49t_qeikrE-3" value="Economic" style="ellipse;whiteSpace=wrap;html=1;fillColor=#f5f5f5;strokeColor=#666666;fontColor=#333333;" vertex="1" parent="1">
          <mxGeometry x="330" y="280" width="120" height="120" as="geometry" />
        </mxCell>
        <mxCell id="qdbTsztt1g49t_qeikrE-5" value="&lt;span style=&quot;font-size: 11px&quot;&gt;Lower cost&lt;/span&gt;&lt;br&gt;&lt;span style=&quot;font-size: 11px&quot;&gt;Higher Efficiency&lt;/span&gt;" style="rounded=0;whiteSpace=wrap;html=1;strokeColor=none;fillColor=none;align=right;" vertex="1" parent="1">
          <mxGeometry x="150" y="305" width="170" height="70" as="geometry" />
        </mxCell>
        <mxCell id="qdbTsztt1g49t_qeikrE-6" value="&lt;span style=&quot;font-size: 11px&quot;&gt;Optimal material use&lt;/span&gt;&lt;br&gt;&lt;span style=&quot;font-size: 11px&quot;&gt;Digital BIM alignment&lt;/span&gt;" style="rounded=0;whiteSpace=wrap;html=1;strokeColor=none;fillColor=none;align=left;" vertex="1" parent="1">
          <mxGeometry x="570" y="305" width="170" height="70" as="geometry" />
        </mxCell>
        <mxCell id="qdbTsztt1g49t_qeikrE-7" value="&lt;span style=&quot;font-size: 11px&quot;&gt;Safer buildings&lt;br&gt;No regional&amp;nbsp;&lt;/span&gt;&lt;span style=&quot;font-size: 11px&quot;&gt;boundaries&amp;nbsp;&lt;/span&gt;" style="rounded=0;whiteSpace=wrap;html=1;strokeColor=none;fillColor=none;align=center;" vertex="1" parent="1">
          <mxGeometry x="360" y="130" width="170" height="70" as="geometry" />
        </mxCell>
        <mxCell id="qdbTsztt1g49t_qeikrE-8" value="Safe buildings for all &lt;br&gt;= Social equality&amp;nbsp;" style="shape=callout;whiteSpace=wrap;html=1;perimeter=calloutPerimeter;fontSize=11;fillColor=#f8cecc;size=30;position=0.13;position2=0.04;strokeColor=none;" vertex="1" parent="1">
          <mxGeometry x="505" y="140" width="120" height="80" as="geometry" />
        </mxCell>
        <mxCell id="qdbTsztt1g49t_qeikrE-10" value="Cost-efficient fire assessment = affordable buildings for everyone" style="shape=callout;whiteSpace=wrap;html=1;perimeter=calloutPerimeter;fontSize=11;fillColor=#f8cecc;size=30;position=0.67;position2=0.92;strokeColor=none;base=24;" vertex="1" parent="1">
          <mxGeometry x="200" y="210" width="170" height="80" as="geometry" />
        </mxCell>
        <mxCell id="qdbTsztt1g49t_qeikrE-11" value="Digital and standardized = saves resources &amp;amp; materials&amp;nbsp;" style="shape=callout;whiteSpace=wrap;html=1;perimeter=calloutPerimeter;fontSize=11;fillColor=#f8cecc;size=30;position=0.13;position2=0.04;strokeColor=none;" vertex="1" parent="1">
          <mxGeometry x="550" y="225" width="150" height="80" as="geometry" />
        </mxCell>
        <mxCell id="qdbTsztt1g49t_qeikrE-13" value="&lt;font style=&quot;font-size: 16px&quot;&gt;How &lt;b&gt;FireBIM&lt;/b&gt; makes the industry more sustainable and greener&lt;/font&gt;" style="rounded=0;whiteSpace=wrap;html=1;strokeColor=none;fillColor=none;align=center;" vertex="1" parent="1">
          <mxGeometry x="350" y="400" width="200" height="70" as="geometry" />
        </mxCell>
      </root>
    </mxGraphModel>
  </diagram>
</mxfile>
